<svg id="Ic_48px_Main_Doi-mat-khau" xmlns="http://www.w3.org/2000/svg" xmlns:xlink="http://www.w3.org/1999/xlink" width="48" height="48" viewBox="0 0 48 48">
  <defs>
    <linearGradient id="linear-gradient" x1="0.5" y1="1" x2="0.5" gradientUnits="objectBoundingBox">
      <stop offset="0" stop-color="#0066ad"/>
      <stop offset="1" stop-color="#00bfae"/>
    </linearGradient>
    <linearGradient id="linear-gradient-2" x1="0.125" y1="0.999" x2="0.884" y2="0.009" gradientUnits="objectBoundingBox">
      <stop offset="0" stop-color="#0066ad"/>
      <stop offset="1" stop-color="#00bfae"/>
    </linearGradient>
    <linearGradient id="linear-gradient-3" x1="0.5" x2="0.5" y2="1" gradientUnits="objectBoundingBox">
      <stop offset="0" stop-color="#00bfae"/>
      <stop offset="1" stop-color="#0066ad"/>
    </linearGradient>
  </defs>
  <rect id="Rectangle_13535" data-name="Rectangle 13535" width="48" height="48" fill="none"/>
  <ellipse id="Ellipse_3104" data-name="Ellipse 3104" cx="18" cy="1.5" rx="18" ry="1.5" transform="translate(6 45)" fill="#0066ad" opacity="0.1"/>
  <g id="Group_16748" data-name="Group 16748" transform="translate(2.361 3.441)">
    <path id="Path_45117" data-name="Path 45117" d="M63.918,1470.213l-.627-2.532c-.115-.762-.457-1.146-.616-1.146H56.844c-.154,0-.5.394-.616,1.144l-.371,2.533H53.794l.375-2.919c.276-1.814,1.375-3.081,2.675-3.081h5.831c1.3,0,2.4,1.266,2.675,3.08l.444,2.92Z" transform="translate(-38.155 -1461.654)" fill="url(#linear-gradient)"/>
    <path id="Path_37272" data-name="Path 37272" d="M31.842,37.34l-3.938.243a94.22,94.22,0,0,1-11.607,0l-3.938-.243A3.341,3.341,0,0,1,9.1,34.028L9.822,8.605A2.517,2.517,0,0,1,12.253,6.25l4.874-.323a75.32,75.32,0,0,1,9.946,0l4.874.323a2.517,2.517,0,0,1,2.431,2.356L35.1,34.028A3.341,3.341,0,0,1,31.842,37.34Z" transform="translate(-0.461 0.796)" fill="url(#linear-gradient-2)"/>
    <path id="Path_45228" data-name="Path 45228" d="M28.343,33.393l-3.332.213a77.1,77.1,0,0,1-9.821,0l-3.332-.213A2.88,2.88,0,0,1,9.1,30.5L9.711,8.25a2.165,2.165,0,0,1,2.057-2.061l4.124-.282a61.636,61.636,0,0,1,8.416,0l4.124.282A2.165,2.165,0,0,1,30.488,8.25L31.1,30.5A2.88,2.88,0,0,1,28.343,33.393Z" transform="translate(1.539 1.296)" fill="#fff"/>
    <path id="Union_114" data-name="Union 114" d="M1609-2663v-4a.989.989,0,0,1,.008-.124A4,4,0,0,1,1606-2671a4,4,0,0,1,4-4,4,4,0,0,1,4,4,4,4,0,0,1-3.007,3.876.989.989,0,0,1,.008.124v4a1,1,0,0,1-1,1A1,1,0,0,1,1609-2663Z" transform="translate(-1588.361 2689.559)" fill="url(#linear-gradient-3)"/>
  </g>
</svg>
