<svg xmlns="http://www.w3.org/2000/svg" width="17" height="17" viewBox="0 0 17 17">
  <g id="coin16x16" transform="translate(0.5 0.5)">
    <circle id="Ellipse_1252" data-name="Ellipse 1252" cx="8" cy="8" r="8" fill="#7e2242" stroke="#fff" stroke-width="1"/>
    <g id="Group_18165" data-name="Group 18165" transform="translate(3 3)">
      <path id="Path_45141" data-name="Path 45141" d="M464.042,246.192a2.125,2.125,0,0,0-.437-.492h0a4.228,4.228,0,0,0-1.866-.963.1.1,0,0,1-.077-.109,4.175,4.175,0,0,0-.241-1.932,2.629,2.629,0,0,0-.3.168l-.009.006a3.823,3.823,0,0,1,.154,2.03.105.105,0,0,0,.089.124,3.87,3.87,0,0,1,2.392,1.321,4.467,4.467,0,0,1-1.829.954.1.1,0,0,0-.078.105,4.441,4.441,0,0,1-.521,2.313,2.3,2.3,0,0,0,2.728-3.526" transform="translate(-454.808 -240.904)" fill="#fff"/>
      <path id="Path_45142" data-name="Path 45142" d="M428.7,235.6a4.261,4.261,0,0,0-1.938,1.707.1.1,0,0,1-.127.042,4.19,4.19,0,0,0-1.9-.369,2.612,2.612,0,0,0,.056.344l0,.008a3.811,3.811,0,0,1,1.978.481.105.105,0,0,0,.146-.046,3.884,3.884,0,0,1,1.99-1.87l.048.119a4.382,4.382,0,0,1,.3,1.919.1.1,0,0,0,.076.106,4.4,4.4,0,0,1,1.674.874h0c.124.108.245.218.36.337A2.358,2.358,0,0,0,428.7,235.6" transform="translate(-422.171 -234.374)" fill="#fff"/>
      <path id="Path_45143" data-name="Path 45143" d="M405.791,256.978l.006-.013c-.03-.02-.059-.04-.088-.061a3.849,3.849,0,0,1-1.23-1.493.105.105,0,0,0-.145-.048,3.849,3.849,0,0,1-2.71.338,4.485,4.485,0,0,1,.918-1.849.1.1,0,0,0,0-.131,4.424,4.424,0,0,1-.935-2.181v-.008a2.289,2.289,0,0,0-.665.306h0c-2.213,1.457-.943,4.454,1.588,4.325a4.208,4.208,0,0,0,1.659-.34.1.1,0,0,1,.129.042,4.194,4.194,0,0,0,1.319,1.416,2.639,2.639,0,0,0,.155-.3" transform="translate(-399.802 -248.832)" fill="#fff"/>
      <path id="Path_45144" data-name="Path 45144" d="M425.112,275.473l-.006-.005a3.825,3.825,0,0,1-1.881.775.105.105,0,0,0-.091.122,3.821,3.821,0,0,1-.518,2.684l-.105-.068a4.365,4.365,0,0,1-1.362-1.377.1.1,0,0,0-.124-.042,4.438,4.438,0,0,1-2.36.219,2.292,2.292,0,0,0,4.034,1.7,3.837,3.837,0,0,0,.829-2.838.105.105,0,0,1,.082-.11,4.21,4.21,0,0,0,1.76-.825,2.641,2.641,0,0,0-.256-.24" transform="translate(-416.722 -270.308)" fill="#fff"/>
      <path id="Path_45145" data-name="Path 45145" d="M423.209,226.028h0a2.313,2.313,0,0,0-4,1.891v0a4.239,4.239,0,0,0,1,2.224.1.1,0,0,1,0,.134,4.225,4.225,0,0,0-.936,1.7,2.64,2.64,0,0,0,.339.053h.013a3.833,3.833,0,0,1,1.068-1.738.105.105,0,0,0,0-.152q-.087-.084-.168-.175a3.885,3.885,0,0,1-.993-2.3,4.458,4.458,0,0,1,2.041.3.1.1,0,0,0,.125-.039,4.435,4.435,0,0,1,1.78-1.564,2.3,2.3,0,0,0-.27-.336" transform="translate(-417.192 -225.253)" fill="#fff"/>
    </g>
  </g>
</svg>
