<svg xmlns="http://www.w3.org/2000/svg" width="65.733" height="71.598" viewBox="0 0 65.733 71.598"><defs><style>.a,.b{fill:none;stroke:#fff;stroke-width:3.6px;}.a{stroke-linecap:round;stroke-linejoin:round;}</style></defs><g transform="translate(1.8 1.8)"><path class="a" d="M-545.111,384h9.818a5.427,5.427,0,0,1,5.427,5.427v41.721a5.427,5.427,0,0,1-5.427,5.427h-51.28A5.427,5.427,0,0,1-592,431.148V388.281A4.281,4.281,0,0,1-587.719,384h8.12" transform="translate(592 -368.576)"/><path class="a" d="M-539.426,418.549v-6.585a6.26,6.26,0,0,0-6.26-6.26h-41.928A4.386,4.386,0,0,1-592,401.319v41.14a6.26,6.26,0,0,0,6.261,6.26h40.053a6.26,6.26,0,0,0,6.26-6.26V431.1" transform="translate(592 -380.722)"/><line class="a" y2="13.942" transform="translate(9.652 34.751)"/><line class="a" y2="4.826" transform="translate(19.305 15.447)"/><line class="a" y2="4.826" transform="translate(25.203 19.305)"/><line class="a" transform="translate(9.652 53.952)"/><path class="a" d="M-440.1,448a6.721,6.721,0,0,1-5.974,3.585h-11.949A5.974,5.974,0,0,0-464,457.559h0a5.974,5.974,0,0,0,5.974,5.974h11.949a5.974,5.974,0,0,0,5.974-5.974h0V448Z" transform="translate(502.236 -413.458)"/><circle class="b" cx="1.072" cy="1.072" r="1.072" transform="translate(42.899 42.795)"/><ellipse class="a" cx="4.558" cy="4.826" rx="4.558" ry="4.826" transform="translate(17.368)"/><circle class="a" cx="4.826" cy="4.826" r="4.826" transform="translate(29.389 10.621)"/></g></svg>